<?xml version="1.0" encoding="utf-8"?>
<!-- Generator: Adobe Illustrator 23.0.1, SVG Export Plug-In . SVG Version: 6.00 Build 0)  -->
<svg version="1.1" id="Calque_1" xmlns="http://www.w3.org/2000/svg" xmlns:xlink="http://www.w3.org/1999/xlink" x="0px" y="0px"
	 width="17px" height="17px" viewBox="0 0 17 17" style="enable-background:new 0 0 17 17;" xml:space="preserve">
<style type="text/css">
	.st0{fill:#D9D9D9;}
</style>
<path class="st0" d="M11.2,4.7l4.5,0.7C16,5.4,16.3,5.7,16.5,6c0.1,0.4,0,0.8-0.2,1L13,10.3l0.8,4.6c0.1,0.4-0.1,0.8-0.4,1
	c-0.3,0.2-0.7,0.3-1.1,0.1l-4-2.1l-4,2.1c-0.3,0.2-0.7,0.2-1.1-0.1c-0.3-0.2-0.5-0.6-0.4-1l0.8-4.6L0.3,7.1C0,6.8-0.1,6.4,0.1,6
	c0.1-0.4,0.4-0.6,0.8-0.7l4.5-0.7l2-4.1C7.5,0.2,7.9,0,8.3,0C8.6,0,9,0.2,9.2,0.6L11.2,4.7z"/>
</svg>
