<svg width="22" height="22" viewBox="0 0 22 22" fill="none" xmlns="http://www.w3.org/2000/svg">
<path d="M21.3523 3.68479C20.0189 3.09424 18.6845 2.86957 17.3508 2.86957C13.1169 2.8692 8.88329 5.1323 4.64939 5.1323C3.58756 5.1323 2.52642 4.99001 1.4646 4.63431C1.34532 4.59438 1.22569 4.57551 1.10882 4.57551C0.517236 4.57551 0.000244141 5.05898 0.000244141 5.7301V17.2456C0.000244141 17.704 0.248772 18.1385 0.647859 18.3149C1.98124 18.9058 3.31566 19.1304 4.64939 19.1304C8.88329 19.1304 13.1172 16.8673 17.3511 16.8673C18.4129 16.8673 19.4741 17.0096 20.5359 17.3653C20.6552 17.4053 20.7748 17.4241 20.8917 17.4241C21.4833 17.4241 22.0002 16.9407 22.0002 16.2695V4.75445C21.9999 4.29566 21.7514 3.86155 21.3523 3.68479V3.68479ZM1.65022 6.50721C2.34183 6.69015 3.0637 6.78198 3.80618 6.83134C3.60406 7.8981 2.71583 8.70207 1.65022 8.70207V6.50721ZM1.65022 16.8517V15.1175C2.83167 15.1175 3.78762 16.1073 3.84022 17.3461C3.06576 17.2804 2.34183 17.1171 1.65022 16.8517V16.8517ZM11.0001 14.4845C9.48106 14.4845 8.25011 12.9241 8.25011 11C8.25011 9.07556 9.48141 7.51553 11.0001 7.51553C12.5187 7.51553 13.75 9.07556 13.75 11C13.75 12.9248 12.5184 14.4845 11.0001 14.4845ZM20.3499 15.4928C19.7477 15.3335 19.1224 15.2442 18.4827 15.1864C18.6845 14.2398 19.428 13.5212 20.3499 13.3978V15.4928ZM20.3499 6.92281C19.2881 6.78089 18.4641 5.8448 18.4315 4.68875C19.1032 4.76752 19.7408 4.91488 20.3499 5.14827V6.92281Z" fill="#0065FC"/>
</svg>
